# xmcd CD database file
#
# Track frame offsets:
#	150
#	25931
#	44467
#	69935
#	92637
#	122048
#	146911
#	172866
#	193580
#	212970
#	234014
#	262587
#
# Disc length: 3832 seconds
#
# Revision: 0
# Processed by: cddbd v1.5.1PL2 Copyright (c) Steve Scherf et al.
# Submitted via: CDex 1.50beta10
#
DISCID=9c0ef60c
DTITLE=Malebo - Truly African
DYEAR=2006
DGENRE=Jazz
TTITLE0=Ntshware
TTITLE1=Sebodu
TTITLE2=Love is in the Air
TTITLE3=Lefelo
TTITLE4=Thobela
TTITLE5=Dikwankwetla
TTITLE6=Jabulani
TTITLE7=Bomme Ba Afrika
TTITLE8=Karabo
TTITLE9=Gasang Peu
TTITLE10=Potsa
TTITLE11=Retswa Kgole
EXTD=YEAR: 2006
EXTT0=
EXTT1=
EXTT2=
EXTT3=
EXTT4=
EXTT5=
EXTT6=
EXTT7=
EXTT8=
EXTT9=
EXTT10=
EXTT11=
PLAYORDER=
